<svg xmlns="http://www.w3.org/2000/svg" width="243.384" height="215.384" viewBox="0 0 243.384 215.384">

    <g transform="translate(-358.308 -162.308)">

        <path d="M542.849,247.12l.05,2.063V308.13h58.793V248.462l-.1-4.228-.312-4.217-.517-4.2-.723-4.166-.927-4.126-1.127-4.076-1.327-4.015-1.522-3.945-1.713-3.866-1.9-3.777-2.084-3.679-2.262-3.573-2.435-3.457-2.6-3.334-2.762-3.2-2.916-3.062-3.062-2.916-3.2-2.762-3.334-2.6-3.457-2.435-3.573-2.262-3.679-2.084-3.777-1.9-3.866-1.713-3.945-1.522-4.015-1.327-4.076-1.127-4.126-.927-4.166-.723-4.2-.517-4.217-.312-4.228-.1H427.87V221.1h86.947l2.063.05,1.339.1,1.332.164,1.322.23,1.309.294,1.294.358,1.274.421L526,223.2l1.227.544,1.2.6,1.168.662,1.134.717,1.1.773,1.058.826,1.016.877.972.925.925.972.877,1.016.826,1.058.772,1.1.719,1.134.661,1.168.6,1.2L540.8,238l.483,1.252.421,1.274.358,1.294.294,1.309.23,1.322.164,1.332.1,1.339" fill="#ababab" 
        stroke="#f3f3f3"/>

        <path d="M417.151,292.88l-.05-2.063V231.87H358.308v59.668l.1,4.228.312,4.217.517,4.2.723,4.166.927,4.126,1.127,4.076,1.327,4.015,1.522,3.945,1.713,3.866,1.9,3.777,2.084,3.679,2.262,3.573,2.435,3.457,2.6,3.334,2.762,3.2,2.916,3.062,3.062,2.916,3.2,2.762,3.334,2.6,3.457,2.435,3.573,2.262,3.679,2.084,3.777,1.9,3.866,1.713,3.945,1.522,4.015,1.327,4.076,1.127,4.126.927,4.166.723,4.2.517,4.217.312,4.228.1H532.13V318.9H445.183l-2.063-.05-1.339-.1-1.332-.164-1.322-.23-1.309-.294-1.294-.358-1.274-.421L434,316.8l-1.227-.544-1.2-.6-1.168-.661-1.134-.718-1.1-.773-1.058-.826L426.1,311.8l-.972-.925-.925-.972-.877-1.016-.826-1.058-.772-1.1-.719-1.134-.661-1.168-.6-1.2L419.2,302l-.483-1.252-.421-1.274-.358-1.294-.294-1.309-.23-1.322-.164-1.332-.1-1.339" fill="#5c5c5c"
        stroke="#f3f3f3"/>

    </g>
</svg>